<?xml version="1.0" standalone="no"?>
<!DOCTYPE svg PUBLIC "-//W3C//DTD SVG 20010904//EN"
 "http://www.w3.org/TR/2001/REC-SVG-20010904/DTD/svg10.dtd">
<svg version="1.0" xmlns="http://www.w3.org/2000/svg"
 width="1024.000000pt" height="1024.000000pt" viewBox="0 0 1024.000000 1024.000000"
 preserveAspectRatio="xMidYMid meet">

<g transform="translate(0.000000,1024.000000) scale(0.100000,-0.100000)"
fill="#000000" stroke="none">
<path d="M8073 9488 c-6 -7 -32 -51 -57 -97 l-48 -83 21 -22 c12 -12 19 -25
16 -28 -8 -8 16 -108 26 -108 5 0 9 14 9 30 0 17 4 30 9 30 5 0 12 17 15 38 9
54 25 246 22 249 -2 2 -8 -2 -13 -9z"/>
<path d="M7861 8914 c-24 -85 -44 -154 -45 -154 -11 0 5 150 21 208 15 52 17
70 7 62 -17 -15 -49 -98 -41 -107 4 -3 3 -11 -2 -17 -4 -6 -16 -36 -26 -66
-10 -30 -20 -62 -23 -70 -3 -8 -6 -17 -6 -20 -1 -3 -4 -9 -7 -15 -4 -5 -32
-95 -64 -200 -31 -104 -63 -207 -71 -227 -7 -21 -12 -38 -9 -38 3 0 -1 -12 -8
-27 -8 -16 -26 -71 -41 -123 -15 -52 -49 -167 -77 -255 -68 -214 -69 -218
-143 -470 -36 -121 -98 -330 -140 -465 -68 -224 -95 -309 -199 -632 -25 -77
-31 -108 -22 -108 7 0 35 -18 62 -39 46 -36 52 -47 54 -93 0 -10 6 -15 15 -11
7 3 11 10 7 16 -3 6 -1 7 5 3 6 -4 9 -13 6 -21 -4 -8 -10 -13 -14 -10 -5 3
-11 1 -15 -4 -3 -6 -11 -8 -18 -6 -7 3 -20 -14 -30 -40 -19 -46 -88 -157 -112
-181 -10 -11 -16 -10 -30 6 -18 19 -47 28 -43 13 1 -5 -10 -31 -25 -60 -26
-51 -38 -139 -18 -131 21 7 121 130 115 140 -4 6 -3 8 4 5 6 -4 42 37 83 95
40 57 95 127 121 156 26 30 48 58 48 63 0 6 4 7 10 4 5 -3 8 0 5 7 -2 7 7 27
20 43 l25 30 1 -60 c1 -44 4 -32 10 47 4 58 13 133 20 165 13 61 17 87 18 116
1 10 5 16 10 13 5 -4 7 3 4 14 -3 12 0 20 6 20 7 0 10 4 7 9 -3 5 7 53 24 107
16 55 48 168 71 252 23 83 46 152 51 152 5 0 6 5 3 10 -4 6 7 57 24 113 173
582 220 738 271 897 94 298 110 350 110 366 0 18 28 18 60 -1 36 -21 43 -18
24 10 -9 14 -21 25 -28 25 -37 1 -35 17 49 290 47 151 85 290 85 308 l0 33
-43 -6 c-24 -4 -60 -2 -79 3 l-35 9 -42 -153z m-65 -210 c-8 -21 -15 -34 -15
-28 -1 15 20 76 25 71 2 -2 -2 -21 -10 -43z m-22 -78 c-3 -15 -8 -25 -11 -23
-2 3 -1 17 3 31 3 15 8 25 11 23 2 -3 1 -17 -3 -31z m-69 -216 c-19 -58 -35
-98 -35 -90 0 19 64 214 67 203 2 -4 -13 -55 -32 -113z m-58 -192 c-3 -8 -6
-5 -6 6 -1 11 2 17 5 13 3 -3 4 -12 1 -19z m-140 -450 c-3 -8 -6 -5 -6 6 -1
11 2 17 5 13 3 -3 4 -12 1 -19z m-100 -330 c-3 -8 -6 -5 -6 6 -1 11 2 17 5 13
3 -3 4 -12 1 -19z m-80 -270 c-3 -8 -6 -5 -6 6 -1 11 2 17 5 13 3 -3 4 -12 1
-19z m-21 -64 c-8 -21 -15 -34 -15 -28 -1 15 20 76 25 71 2 -2 -2 -21 -10 -43z
m-39 -136 c-3 -8 -6 -5 -6 6 -1 11 2 17 5 13 3 -3 4 -12 1 -19z m-36 -109 c-5
-13 -10 -19 -10 -12 -1 15 10 45 15 40 3 -2 0 -15 -5 -28z m-64 -231 c-3 -8
-6 -5 -6 6 -1 11 2 17 5 13 3 -3 4 -12 1 -19z"/>
<path d="M7825 8870 c-3 -5 -1 -10 4 -10 6 0 11 5 11 10 0 6 -2 10 -4 10 -3 0
-8 -4 -11 -10z"/>
<path d="M6991 6534 c0 -11 3 -14 6 -6 3 7 2 16 -1 19 -3 4 -6 -2 -5 -13z"/>
<path d="M6963 6445 c-3 -9 -3 -18 -1 -21 3 -3 8 4 11 16 6 23 -1 27 -10 5z"/>
<path d="M6932 6368 c-7 -7 -12 -21 -12 -32 0 -12 -11 -45 -25 -75 -24 -50
-26 -78 -6 -55 10 10 62 166 58 171 -2 1 -9 -3 -15 -9z"/>
<path d="M8571 5774 c0 -11 3 -14 6 -6 3 7 2 16 -1 19 -3 4 -6 -2 -5 -13z"/>
<path d="M8573 5655 c0 -27 2 -38 4 -22 2 15 2 37 0 50 -2 12 -4 0 -4 -28z"/>
<path d="M8569 5557 c-1 -20 -3 -49 -4 -64 -1 -16 -6 -631 -9 -1368 -4 -762
-11 -1379 -17 -1430 -25 -230 -106 -395 -273 -560 -151 -149 -318 -231 -556
-272 -100 -17 -233 -18 -2585 -18 -2362 0 -2484 1 -2570 18 -49 10 -127 31
-173 47 -307 105 -567 381 -646 687 -32 122 -36 243 -37 1098 0 473 -3 885 -6
915 -17 162 -22 -79 -20 -968 3 -967 3 -978 24 -1053 30 -105 70 -190 138
-294 192 -291 472 -452 840 -484 55 -5 1200 -8 2545 -7 l2445 1 100 23 c55 13
117 29 138 37 20 8 39 15 42 15 16 -1 162 74 216 110 92 62 226 202 282 297
82 138 118 245 137 407 9 83 3 2884 -6 2895 -2 2 -5 -12 -5 -32z"/>
<path d="M3022 4375 c0 -16 2 -22 5 -12 2 9 2 23 0 30 -3 6 -5 -1 -5 -18z"/>
<path d="M3025 3940 c0 -223 1 -314 2 -202 2 111 2 293 0 405 -1 111 -2 20 -2
-203z"/>
<path d="M7243 4100 c0 -30 2 -43 4 -27 2 15 2 39 0 55 -2 15 -4 2 -4 -28z"/>
<path d="M7243 3575 c0 -44 2 -61 4 -37 2 23 2 59 0 80 -2 20 -4 1 -4 -43z"/>
<path d="M7232 3470 c0 -14 2 -19 5 -12 2 6 2 18 0 25 -3 6 -5 1 -5 -13z"/>
<path d="M3200 3226 c0 -2 8 -10 18 -17 15 -13 16 -12 3 4 -13 16 -21 21 -21
13z"/>
<path d="M7149 3183 l-24 -28 28 24 c15 14 27 26 27 28 0 8 -8 1 -31 -24z"/>
<path d="M7094 3140 c-6 -6 -39 -26 -75 -45 -72 -39 -74 -48 -1 -11 44 22 104
65 92 66 -4 0 -11 -5 -16 -10z"/>
<path d="M4863 3093 c26 -2 68 -2 95 0 26 2 4 3 -48 3 -52 0 -74 -1 -47 -3z"/>
<path d="M5498 3093 c7 -3 16 -2 19 1 4 3 -2 6 -13 5 -11 0 -14 -3 -6 -6z"/>
<path d="M6753 3093 c9 -2 25 -2 35 0 9 3 1 5 -18 5 -19 0 -27 -2 -17 -5z"/>
<path d="M6868 3033 c7 -3 16 -2 19 1 4 3 -2 6 -13 5 -11 0 -14 -3 -6 -6z"/>
<path d="M6818 3023 c7 -3 16 -2 19 1 4 3 -2 6 -13 5 -11 0 -14 -3 -6 -6z"/>
<path d="M6743 3013 c9 -2 23 -2 30 0 6 3 -1 5 -18 5 -16 0 -22 -2 -12 -5z"/>
<path d="M6218 3003 c61 -2 163 -2 225 0 61 1 11 3 -113 3 -124 0 -174 -2
-112 -3z"/>
</g>
</svg>
